<?xml version="1.0" encoding="iso-8859-1"?>
<!-- Generator: Adobe Illustrator 18.1.1, SVG Export Plug-In . SVG Version: 6.00 Build 0)  -->
<svg version="1.1" id="Capa_1" xmlns="http://www.w3.org/2000/svg" xmlns:xlink="http://www.w3.org/1999/xlink" x="0px" y="0px"
	 viewBox="0 0 45.336 45.336" style="enable-background:new 0 0 45.336 45.336;" xml:space="preserve">
<g>
	<rect x="15.63" y="35.573" width="4.838" height="4.84"/>
	<rect x="6.342" y="26.853" width="23.375" height="16.537"/>
	<rect x="8.746" y="29.261" width="4.839" height="4.838"/>
	<rect x="15.63" y="29.261" width="4.838" height="4.838"/>
	<rect x="36.105" y="0" width="4.838" height="4.838"/>
	<rect x="8.746" y="35.573" width="4.839" height="4.84"/>
	<rect x="36.105" y="6.312" width="4.838" height="4.84"/>
	<path d="M29.715,21.962H6.341c-1.08,0-1.949,0.868-1.949,1.946V43.39c0,1.074,0.869,1.946,1.949,1.946h23.375
		c1.071,0,1.945-0.872,1.945-1.946V23.908C31.661,22.83,30.788,21.962,29.715,21.962z M13.707,23.425
		c0.535,0,0.973,0.431,0.973,0.973c0,0.537-0.438,0.973-0.973,0.973c-0.539,0-0.976-0.436-0.976-0.973
		C12.731,23.855,13.168,23.425,13.707,23.425z M10.724,23.425c0.537,0,0.974,0.431,0.974,0.973c0,0.537-0.437,0.973-0.974,0.973
		c-0.539,0-0.975-0.436-0.975-0.973C9.748,23.855,10.184,23.425,10.724,23.425z M7.8,23.425c0.539,0,0.975,0.431,0.975,0.973
		c0,0.537-0.436,0.973-0.975,0.973c-0.537,0-0.971-0.436-0.971-0.973C6.83,23.855,7.264,23.425,7.8,23.425z M29.715,43.39H6.341
		V26.853h23.375L29.715,43.39L29.715,43.39z"/>
	<g>
	</g>
	<g>
	</g>
	<g>
	</g>
	<g>
	</g>
	<g>
	</g>
	<g>
	</g>
	<g>
	</g>
	<g>
	</g>
	<g>
	</g>
	<g>
	</g>
	<g>
	</g>
	<g>
	</g>
	<g>
	</g>
	<g>
	</g>
	<g>
	</g>
</g>
<g>
</g>
<g>
</g>
<g>
</g>
<g>
</g>
<g>
</g>
<g>
</g>
<g>
</g>
<g>
</g>
<g>
</g>
<g>
</g>
<g>
</g>
<g>
</g>
<g>
</g>
<g>
</g>
<g>
</g>
</svg>
